<svg width="200" height="200" viewBox="0 0 200 200" fill="none" xmlns="http://www.w3.org/2000/svg">
<rect width="200" height="200" fill="#04241C"/>
<path d="M44.2085 148C43.5438 148 43 147.441 43 146.751C43 121.764 43.0121 53.2706 43.0121 53.2706C43.0121 52.5806 43.5559 52.0159 44.2205 52.0159H68.9941C69.6587 52.0159 70.2026 52.5806 70.2026 53.2706V57.2355C70.2026 57.7122 70.6859 58.0134 71.0908 57.7875C75.3808 55.4224 83.6467 51.7274 94.3719 52.0159C99.3024 52.1477 109.133 52.4112 117.593 59.5064C130.408 70.2466 130.022 87.7746 130.003 90.2652L130.07 146.676C130.07 147.372 129.532 147.937 128.861 147.937H104.094C103.429 147.937 102.892 147.372 102.885 146.682L102.602 94.6315C102.602 82.9692 97.3991 74.5878 86.8371 74.5878C75.6467 74.5878 69.985 83.5275 69.985 96.89L70.2026 146.733C70.2026 147.429 69.6648 147.994 68.9941 147.994H44.2145L44.2085 148Z" fill="#F0EFED"/>
<path d="M161.25 125.416H141.915C141.247 125.416 140.706 125.977 140.706 126.67V146.745C140.706 147.438 141.247 148 141.915 148H161.25C161.918 148 162.459 147.438 162.459 146.745V126.67C162.459 125.977 161.918 125.416 161.25 125.416Z" fill="#E1F96C"/>
</svg>
